<svg width="16" height="16" viewBox="0 0 16 16" fill="none" xmlns="http://www.w3.org/2000/svg">
<path fill-rule="evenodd" clip-rule="evenodd" d="M3.75 8C3.75 5.65279 5.65279 3.75 8 3.75C10.3472 3.75 12.25 5.65279 12.25 8C12.25 10.3472 10.3472 12.25 8 12.25C5.65279 12.25 3.75 10.3472 3.75 8ZM8 2.25C4.82436 2.25 2.25 4.82436 2.25 8C2.25 11.1756 4.82436 13.75 8 13.75C11.1756 13.75 13.75 11.1756 13.75 8C13.75 4.82436 11.1756 2.25 8 2.25ZM8 9C8.55228 9 9 8.55228 9 8C9 7.44772 8.55228 7 8 7C7.44772 7 7 7.44772 7 8C7 8.55228 7.44772 9 8 9Z" fill="#142049"/>
<path opacity="0.6" d="M8 8L0.75 0.75" stroke="#142049" stroke-width="1.5" stroke-linecap="round"/>
</svg>
