<svg width="16" height="16" viewBox="0 0 16 16" fill="none" xmlns="http://www.w3.org/2000/svg">
<g clip-path="url(#clip0_1285_12269)">
<path fill-rule="evenodd" clip-rule="evenodd" d="M16 8C16 12.4183 12.4183 16 8 16C3.58172 16 0 12.4183 0 8C0 3.58172 3.58172 0 8 0C12.4183 0 16 3.58172 16 8ZM8 9.5C7.58579 9.5 7.25 9.16421 7.25 8.75L7.25 3.75C7.25 3.33579 7.58579 3 8 3C8.41421 3 8.75 3.33579 8.75 3.75V8.75C8.75 9.16421 8.41421 9.5 8 9.5ZM8 13C8.55228 13 9 12.5523 9 12C9 11.4477 8.55229 11 8 11C7.44772 11 7 11.4477 7 12C7 12.5523 7.44771 13 8 13Z" fill="#142049"/>
</g>
<defs>
<clipPath id="clip0_1285_12269">
<rect width="16" height="16" fill="white"/>
</clipPath>
</defs>
</svg>
