<svg width="16" height="16" viewBox="0 0 16 16" fill="none" xmlns="http://www.w3.org/2000/svg">
<path fill-rule="evenodd" clip-rule="evenodd" d="M0.572949 3.23664C0 4.02524 0 5.15016 0 7.4V8.6C0 10.8498 0 11.9748 0.572949 12.7634C0.757988 13.018 0.98196 13.242 1.23664 13.4271C2.02524 14 3.15016 14 5.4 14H10.6C12.8498 14 13.9748 14 14.7634 13.4271C15.018 13.242 15.242 13.018 15.4271 12.7634C16 11.9748 16 10.8498 16 8.6V7.4C16 5.15016 16 4.02524 15.4271 3.23664C15.242 2.98196 15.018 2.75799 14.7634 2.57295C13.9748 2 12.8498 2 10.6 2H5.4C3.15016 2 2.02524 2 1.23664 2.57295C0.98196 2.75799 0.757988 2.98196 0.572949 3.23664ZM4.84562 5.52344H5.09514L6.66398 10.5H5.601L5.33093 9.47461H3.95528L3.68693 10.5H2.63078L4.18596 5.52344H4.42521H4.84562ZM4.17265 8.64404H5.11218L4.64092 6.85475L4.17265 8.64404ZM8.55713 8.74658H9.25439C9.58936 8.74658 9.8776 8.68164 10.1191 8.55176C10.3607 8.42188 10.5452 8.23958 10.6729 8.00488C10.8027 7.7679 10.8677 7.48877 10.8677 7.16748C10.8677 6.84847 10.8027 6.56592 10.6729 6.31982C10.5452 6.07145 10.3607 5.87663 10.1191 5.73535C9.8776 5.59408 9.58936 5.52344 9.25439 5.52344H7.55908V10.5H8.55713V8.74658ZM8.55713 7.91602V6.354H9.25439C9.39795 6.354 9.51302 6.39274 9.59961 6.47021C9.68848 6.54769 9.75342 6.64909 9.79443 6.77441C9.83773 6.89746 9.85938 7.03076 9.85938 7.17432C9.85938 7.31559 9.83887 7.4432 9.79785 7.55713C9.75684 7.66878 9.69075 7.75651 9.59961 7.82031C9.51074 7.88411 9.39567 7.91602 9.25439 7.91602H8.55713ZM12.9967 10.5V5.52344H12.002V10.5H12.9967Z" fill="#142049"/>
</svg>
