<svg width="16" height="16" viewBox="0 0 16 16" fill="none" xmlns="http://www.w3.org/2000/svg">
<path fill-rule="evenodd" clip-rule="evenodd" d="M2 5.4C2 3.15016 2 2.02524 2.57295 1.23664C2.75799 0.98196 2.98196 0.757988 3.23664 0.572949C4.02524 0 5.15016 0 7.4 0H8.6C10.8498 0 11.9748 0 12.7634 0.572949C13.018 0.757988 13.242 0.98196 13.4271 1.23664C14 2.02524 14 3.15016 14 5.4V10.6C14 12.8498 14 13.9748 13.4271 14.7634C13.242 15.018 13.018 15.242 12.7634 15.4271C11.9748 16 10.8498 16 8.6 16H7.4C5.15016 16 4.02524 16 3.23664 15.4271C2.98196 15.242 2.75799 15.018 2.57295 14.7634C2 13.9748 2 12.8498 2 10.6V5.4ZM4 13.25C4 12.8358 4.33579 12.5 4.75 12.5H9.25C9.66421 12.5 10 12.8358 10 13.25C10 13.6642 9.66421 14 9.25 14H4.75C4.33579 14 4 13.6642 4 13.25ZM4.75 9.5C4.33579 9.5 4 9.83579 4 10.25C4 10.6642 4.33579 11 4.75 11H7.25C7.66421 11 8 10.6642 8 10.25C8 9.83579 7.66421 9.5 7.25 9.5H4.75Z" fill="#142049"/>
</svg>
