<svg width="16" height="16" viewBox="0 0 16 16" fill="none" xmlns="http://www.w3.org/2000/svg">
<path d="M3 8.88615C3 9.02465 3.04731 9.14165 3.14194 9.23717C3.23657 9.32791 3.35959 9.37328 3.511 9.37328H7.52094L5.40596 15.1758C5.33499 15.3621 5.3208 15.5221 5.36338 15.6558C5.41069 15.7895 5.48876 15.885 5.59759 15.9423C5.71114 16.0044 5.83653 16.0164 5.97374 15.9782C6.11568 15.9447 6.2458 15.854 6.36409 15.7059L12.8155 7.56804C12.9385 7.41044 13 7.25762 13 7.10957C13 6.97107 12.9527 6.85645 12.8581 6.76571C12.7634 6.6702 12.6404 6.62244 12.489 6.62244H8.47906L10.594 0.81988C10.665 0.638401 10.6768 0.4808 10.6295 0.347079C10.5869 0.213357 10.5089 0.117842 10.3953 0.0605329C10.2865 -0.00155212 10.1611 -0.0158794 10.0192 0.0175509C9.88195 0.0509813 9.7542 0.144109 9.63591 0.296933L3.18453 8.42768C3.06151 8.59005 3 8.74288 3 8.88615Z" fill="#142049"/>
</svg>
