<svg width="16" height="16" viewBox="0 0 16 16" fill="none" xmlns="http://www.w3.org/2000/svg">
<path fill-rule="evenodd" clip-rule="evenodd" d="M3.25 3.75C2.83579 3.75 2.5 4.08579 2.5 4.5C2.5 4.91421 2.83579 5.25 3.25 5.25H12.75C13.1642 5.25 13.5 4.91421 13.5 4.5C13.5 4.08579 13.1642 3.75 12.75 3.75H3.25ZM2.5 8C2.5 7.58579 2.83579 7.25 3.25 7.25H12.75C13.1642 7.25 13.5 7.58579 13.5 8C13.5 8.41421 13.1642 8.75 12.75 8.75H3.25C2.83579 8.75 2.5 8.41421 2.5 8ZM2.5 11.5C2.5 11.0858 2.83579 10.75 3.25 10.75H12.75C13.1642 10.75 13.5 11.0858 13.5 11.5C13.5 11.9142 13.1642 12.25 12.75 12.25H3.25C2.83579 12.25 2.5 11.9142 2.5 11.5Z" fill="#142049"/>
</svg>
