<svg width="16" height="16" viewBox="0 0 16 16" fill="none" xmlns="http://www.w3.org/2000/svg">
<path fill-rule="evenodd" clip-rule="evenodd" d="M4.75 0C5.16421 0 5.5 0.335786 5.5 0.75V2.00168C5.77846 2 6.07768 2 6.4 2H9.6C9.92232 2 10.2215 2 10.5 2.00168V0.75C10.5 0.335786 10.8358 0 11.25 0C11.6642 0 12 0.335786 12 0.75V2.05011C12.7822 2.11289 13.3248 2.25432 13.7634 2.57295C14.018 2.75799 14.242 2.98196 14.4271 3.23664C14.7457 3.6752 14.8871 4.21778 14.9499 5H1.05011C1.11289 4.21778 1.25432 3.6752 1.57295 3.23664C1.75799 2.98196 1.98196 2.75799 2.23664 2.57295C2.6752 2.25432 3.21778 2.11289 4 2.05011V0.75C4 0.335786 4.33579 0 4.75 0ZM1.00168 6.5C1 6.77846 1 7.07768 1 7.4V9.6C1 11.8498 1 12.9748 1.57295 13.7634C1.75799 14.018 1.98196 14.242 2.23664 14.4271C3.02524 15 4.15016 15 6.4 15H9.6C11.8498 15 12.9748 15 13.7634 14.4271C14.018 14.242 14.242 14.018 14.4271 13.7634C15 12.9748 15 11.8498 15 9.6V7.4C15 7.07769 15 6.77846 14.9983 6.5H1.00168ZM3 11.25C3 10.8358 3.33579 10.5 3.75 10.5H6.25C6.66421 10.5 7 10.8358 7 11.25C7 11.6642 6.66421 12 6.25 12H3.75C3.33579 12 3 11.6642 3 11.25Z" fill="#142049"/>
</svg>
