<svg width="16" height="16" viewBox="0 0 16 16" fill="none" xmlns="http://www.w3.org/2000/svg">
<g clip-path="url(#clip0_1140_9361)">
<path fill-rule="evenodd" clip-rule="evenodd" d="M7.51468 -5.42021e-06L7.55 -3.15523e-06H8.45L8.48532 -5.42021e-06C8.82988 -3.80836e-05 9.14611 -6.81243e-05 9.40733 0.0282332C9.69149 0.0590197 9.99803 0.130355 10.2786 0.334217C10.4272 0.442156 10.5578 0.572807 10.6658 0.721373C10.8696 1.00197 10.941 1.30851 10.9718 1.59266C11.0001 1.85388 11 2.17009 11 2.51464V2.51467L11 2.55V5.00306C12.2277 5.01555 12.9408 5.07907 13.5 5.40192C13.9561 5.66523 14.3348 6.04394 14.5981 6.5C15 7.19615 15 8.13076 15 10C15 11.8692 15 12.8038 14.5981 13.5C14.3348 13.9561 13.9561 14.3348 13.5 14.5981C13.1133 14.8213 12.6531 14.9206 12 14.9647V15.25C12 15.6642 11.6642 16 11.25 16C10.8358 16 10.5 15.6642 10.5 15.25V14.9997C10.3411 15 10.1746 15 10 15H6C5.63226 15 5.30069 15 5 14.9969V15.25C5 15.6642 4.66421 16 4.25 16C3.83579 16 3.5 15.6642 3.5 15.25V14.914C3.09803 14.8562 2.77976 14.7596 2.5 14.5981C2.04394 14.3348 1.66523 13.9561 1.40192 13.5C1 12.8038 1 11.8692 1 10C1 8.13076 1 7.19615 1.40192 6.5C1.66523 6.04394 2.04394 5.66523 2.5 5.40192C3.0592 5.07907 3.77226 5.01555 5 5.00306V2.55L5 2.51467V2.51466C4.99997 2.17011 4.99994 1.85388 5.02824 1.59266C5.05902 1.30851 5.13036 1.00197 5.33422 0.721373C5.44216 0.572807 5.57281 0.442156 5.72138 0.334217C6.00197 0.130355 6.30851 0.0590197 6.59267 0.0282332C6.85389 -6.81243e-05 7.17012 -3.80836e-05 7.51468 -5.42021e-06ZM9.5 2.55V5H6.5V2.55C6.5 2.15832 6.50103 1.9248 6.51951 1.75423C6.53038 1.6539 6.54421 1.61279 6.54934 1.60088C6.56391 1.58127 6.58128 1.56391 6.60088 1.54934C6.6128 1.5442 6.6539 1.53038 6.75424 1.51951C6.92481 1.50103 7.15832 1.5 7.55 1.5H8.45C8.84168 1.5 9.0752 1.50103 9.24576 1.51951C9.3461 1.53038 9.3872 1.5442 9.39912 1.54934C9.41872 1.56391 9.43609 1.58127 9.45066 1.60088C9.45579 1.61279 9.46962 1.6539 9.48049 1.75423C9.49897 1.9248 9.5 2.15832 9.5 2.55ZM6.55138 1.59693C6.55143 1.59705 6.55086 1.59834 6.54954 1.60041C6.55067 1.59785 6.55133 1.59681 6.55138 1.59693ZM6.59693 1.55138C6.59681 1.55133 6.59785 1.55067 6.60042 1.54954C6.59834 1.55086 6.59706 1.55143 6.59693 1.55138ZM9.40307 1.55138C9.40294 1.55142 9.40166 1.55086 9.39958 1.54954C9.40215 1.55067 9.40319 1.55133 9.40307 1.55138ZM9.44862 1.59693C9.44867 1.59681 9.44933 1.59785 9.45045 1.60041C9.44914 1.59834 9.44857 1.59705 9.44862 1.59693ZM3.07612 10.6173C3 10.8011 3 11.0341 3 11.5C3 11.9659 3 12.1989 3.07612 12.3827C3.17761 12.6277 3.37229 12.8224 3.61732 12.9239C3.80109 13 4.03406 13 4.5 13C4.96594 13 5.19891 13 5.38268 12.9239C5.62771 12.8224 5.82239 12.6277 5.92388 12.3827C6 12.1989 6 11.9659 6 11.5C6 11.0341 6 10.8011 5.92388 10.6173C5.82239 10.3723 5.62771 10.1776 5.38268 10.0761C5.19891 10 4.96594 10 4.5 10C4.03406 10 3.80109 10 3.61732 10.0761C3.37229 10.1776 3.17761 10.3723 3.07612 10.6173Z" fill="#142049"/>
</g>
<defs>
<clipPath id="clip0_1140_9361">
<rect width="16" height="16" fill="white"/>
</clipPath>
</defs>
</svg>
