<svg width="16" height="16" viewBox="0 0 16 16" fill="none" xmlns="http://www.w3.org/2000/svg">
<path fill-rule="evenodd" clip-rule="evenodd" d="M2.32698 1.63803C2 2.27976 2 3.11984 2 4.8V11.2C2 12.8802 2 13.7202 2.32698 14.362C2.6146 14.9265 3.07354 15.3854 3.63803 15.673C4.27976 16 5.11984 16 6.8 16H10.5C8.01472 16 6 13.9853 6 11.5C6 9.01472 8.01472 7 10.5 7C11.9136 7 13.175 7.65183 14 8.67133V4.8C14 3.11984 14 2.27976 13.673 1.63803C13.3854 1.07354 12.9265 0.614601 12.362 0.32698C11.7202 0 10.8802 0 9.2 0H6.8C5.11984 0 4.27976 0 3.63803 0.32698C3.07354 0.614601 2.6146 1.07354 2.32698 1.63803ZM4 2.75C4 2.33579 4.33579 2 4.75 2H8.25C8.66421 2 9 2.33579 9 2.75C9 3.16421 8.66421 3.5 8.25 3.5H4.75C4.33579 3.5 4 3.16421 4 2.75ZM10.5 9.75C9.53347 9.75 8.74997 10.5335 8.74997 11.5C8.74997 12.4665 9.53347 13.25 10.5 13.25C11.4665 13.25 12.25 12.4665 12.25 11.5C12.25 10.5335 11.4665 9.75 10.5 9.75ZM7.24997 11.5C7.24997 9.70507 8.70504 8.25 10.5 8.25C12.2949 8.25 13.75 9.70507 13.75 11.5C13.75 12.1257 13.5731 12.7102 13.2667 13.206L14.7803 14.7197C15.0732 15.0126 15.0732 15.4874 14.7803 15.7803C14.4874 16.0732 14.0126 16.0732 13.7197 15.7803L12.2061 14.2667C11.7102 14.5732 11.1257 14.75 10.5 14.75C8.70504 14.75 7.24997 13.2949 7.24997 11.5Z" fill="#142049"/>
</svg>
