<svg width="16" height="16" viewBox="0 0 16 16" fill="none" xmlns="http://www.w3.org/2000/svg">
<path fill-rule="evenodd" clip-rule="evenodd" d="M8 1C7.17157 1 6.5 1.67157 6.5 2.5V13.5C6.5 14.3284 7.17157 15 8 15C8.82843 15 9.5 14.3284 9.5 13.5V2.5C9.5 1.67157 8.82843 1 8 1ZM12 6.5C12 5.67157 12.6716 5 13.5 5C14.3284 5 15 5.67157 15 6.5V13.5C15 14.3284 14.3284 15 13.5 15C12.6716 15 12 14.3284 12 13.5V6.5ZM1 9.5C1 8.67157 1.67157 8 2.5 8C3.32843 8 4 8.67157 4 9.5V13.5C4 14.3284 3.32843 15 2.5 15C1.67157 15 1 14.3284 1 13.5V9.5Z" fill="#142049"/>
</svg>
