<svg width="16" height="16" viewBox="0 0 16 16" fill="none" xmlns="http://www.w3.org/2000/svg">
<path fill-rule="evenodd" clip-rule="evenodd" d="M0.572949 3.23664C0 4.02524 0 5.15016 0 7.4V8.6C0 10.8498 0 11.9748 0.572949 12.7634C0.757988 13.018 0.98196 13.242 1.23664 13.4271C2.02524 14 3.15016 14 5.4 14H9V15.5C9 15.8866 9.41996 16.1269 9.75327 15.9311L13 14L13.0001 13.9999L13.0002 13.9999C13.3193 13.7871 13.479 13.6807 13.6233 13.5713C15.0192 12.5137 15.8834 10.899 15.9891 9.15085C16 8.97004 16 8.77818 16 8.39445V6.83006C16 5.12153 16 4.26727 15.6622 3.61704C15.3776 3.06914 14.9309 2.6224 14.383 2.33778C13.7327 2 12.8785 2 11.1699 2H5.4C3.15016 2 2.02524 2 1.23664 2.57295C0.98196 2.75799 0.757988 2.98196 0.572949 3.23664ZM2 5.75C2 5.33579 2.33579 5 2.75 5H8.25C8.66421 5 9 5.33579 9 5.75C9 6.16421 8.66421 6.5 8.25 6.5H2.75C2.33579 6.5 2 6.16421 2 5.75ZM2.75 8.5C2.33579 8.5 2 8.83579 2 9.25C2 9.66421 2.33579 10 2.75 10H5.25C5.66421 10 6 9.66421 6 9.25C6 8.83579 5.66421 8.5 5.25 8.5H2.75Z" fill="#142049"/>
</svg>
