<svg width="16" height="16" viewBox="0 0 16 16" fill="none" xmlns="http://www.w3.org/2000/svg">
<g clip-path="url(#clip0_1142_9399)">
<path fill-rule="evenodd" clip-rule="evenodd" d="M8 16C12.4183 16 16 12.4183 16 8C16 3.58172 12.4183 0 8 0C3.58172 0 0 3.58172 0 8C0 12.4183 3.58172 16 8 16ZM5.19098 5.41221C5 5.67508 5 6.05005 5 6.8V9.2C5 9.94995 5 10.3249 5.19098 10.5878C5.25266 10.6727 5.32732 10.7473 5.41221 10.809C5.67508 11 6.05005 11 6.8 11H9.2C9.94995 11 10.3249 11 10.5878 10.809C10.6727 10.7473 10.7473 10.6727 10.809 10.5878C11 10.3249 11 9.94995 11 9.2V6.8C11 6.05005 11 5.67508 10.809 5.41221C10.7473 5.32732 10.6727 5.25266 10.5878 5.19098C10.3249 5 9.94995 5 9.2 5H6.8C6.05005 5 5.67508 5 5.41221 5.19098C5.32732 5.25266 5.25266 5.32732 5.19098 5.41221Z" fill="#142049"/>
</g>
<defs>
<clipPath id="clip0_1142_9399">
<rect width="16" height="16" fill="white"/>
</clipPath>
</defs>
</svg>
