<svg width="16" height="16" viewBox="0 0 16 16" fill="none" xmlns="http://www.w3.org/2000/svg">
<path fill-rule="evenodd" clip-rule="evenodd" d="M9.39707 1.01457C9.80324 1.0958 10.0667 1.49092 9.98542 1.89709L7.48542 14.3971C7.40419 14.8033 7.00907 15.0667 6.6029 14.9854C6.19673 14.9042 5.93331 14.5091 6.01455 14.1029L8.51455 1.60292C8.59578 1.19675 8.9909 0.933336 9.39707 1.01457ZM11.2004 4.23966C11.4823 3.93613 11.9568 3.91855 12.2603 4.2004L15.7603 7.4504C15.9132 7.59231 16 7.79145 16 8C16 8.20855 15.9132 8.40768 15.7603 8.54959L12.2603 11.7996C11.9568 12.0814 11.4823 12.0639 11.2004 11.7603C10.9186 11.4568 10.9361 10.9823 11.2397 10.7004L14.1478 8L11.2397 5.29959C10.9361 5.01774 10.9186 4.54319 11.2004 4.23966ZM3.73966 4.2004C4.04319 3.91855 4.51774 3.93613 4.79959 4.23966C5.08145 4.54319 5.06387 5.01774 4.76034 5.29959L1.85221 8L4.76034 10.7004C5.06387 10.9823 5.08145 11.4568 4.79959 11.7603C4.51774 12.0639 4.04319 12.0814 3.73966 11.7996L0.239662 8.54959C0.0868363 8.40768 0 8.20855 0 8C0 7.79145 0.0868363 7.59231 0.239662 7.4504L3.73966 4.2004Z" fill="#142049"/>
</svg>
