<svg width="16" height="16" viewBox="0 0 16 16" fill="none" xmlns="http://www.w3.org/2000/svg">
<path fill-rule="evenodd" clip-rule="evenodd" d="M3 1.5C2.17157 1.5 1.5 2.17157 1.5 3C1.5 3.82843 2.17157 4.5 3 4.5C3.82843 4.5 4.5 3.82843 4.5 3C4.5 2.17157 3.82843 1.5 3 1.5ZM0 3C0 1.34315 1.34315 0 3 0C4.65685 0 6 1.34315 6 3C6 4.39788 5.04392 5.57245 3.75 5.90549V15.25C3.75 15.6642 3.41421 16 3 16C2.58579 16 2.25 15.6642 2.25 15.25V5.90549C0.95608 5.57245 0 4.39788 0 3ZM8.25 2C7.83579 2 7.5 2.33579 7.5 2.75C7.5 3.16421 7.83579 3.5 8.25 3.5H10C11.2426 3.5 12.25 4.50736 12.25 5.75V10.0945C10.9561 10.4275 10 11.6021 10 13C10 14.6569 11.3431 16 13 16C14.6569 16 16 14.6569 16 13C16 11.6021 15.0439 10.4275 13.75 10.0945V5.75C13.75 3.67893 12.0711 2 10 2H8.25ZM11.5 13C11.5 12.1716 12.1716 11.5 13 11.5C13.8284 11.5 14.5 12.1716 14.5 13C14.5 13.8284 13.8284 14.5 13 14.5C12.1716 14.5 11.5 13.8284 11.5 13Z" fill="#142049"/>
</svg>
