<svg width="18" height="18" viewBox="0 0 18 18" fill="none" xmlns="http://www.w3.org/2000/svg">
<path fill-rule="evenodd" clip-rule="evenodd" d="M17.3759 8.63975L17.3759 8.63465C17.3729 8.43305 17.3253 8.2346 17.2364 8.0536C17.1475 7.8726 17.0196 7.71355 16.8619 7.58792C16.7041 7.46229 16.5205 7.37322 16.3241 7.32714C16.1277 7.28107 15.9236 7.27915 15.7264 7.32153L15.7203 7.32286C15.433 7.38734 15.135 7.38685 14.8479 7.32143C14.5608 7.25601 14.2919 7.1273 14.0607 6.94467C13.8296 6.76204 13.6421 6.53007 13.5119 6.26567C13.3822 6.00228 13.3127 5.71334 13.3083 5.41975C13.3068 5.06249 13.1643 4.72011 12.9116 4.46726C12.6588 4.21438 12.3165 4.07167 11.959 4.07017C11.6658 4.06577 11.3772 3.99621 11.1141 3.86649C10.8499 3.73627 10.6181 3.54869 10.4356 3.3174C10.253 3.08611 10.1243 2.81694 10.0589 2.52952C9.99349 2.24209 9.993 1.94368 10.0575 1.65604L10.0588 1.64995C10.1011 1.45282 10.0992 1.24875 10.0532 1.05244C10.0072 0.856131 9.91823 0.672451 9.7927 0.514642C9.66716 0.35683 9.50818 0.228814 9.32719 0.139845C9.1462 0.0508756 8.94771 0.00317542 8.74604 0.000200432L8.73983 0.000136893C7.00671 -0.00979288 5.31023 0.499016 3.86838 1.46114C2.42653 2.42327 1.30518 3.79474 0.648353 5.3993C-0.00847429 7.00386 -0.170803 8.76826 0.182206 10.4658C0.535216 12.1634 1.38745 13.7166 2.62948 14.9259C6.01629 18.2241 11.4811 18.1882 14.8232 14.845C15.6398 14.0326 16.2861 13.0655 16.7244 12.0002C17.1629 10.9346 17.3843 9.7921 17.3759 8.63975ZM10.8897 13.3654C11.4421 13.3654 11.8899 12.9173 11.8899 12.3646C11.8899 11.8118 11.4421 11.3637 10.8897 11.3637C10.3372 11.3637 9.8894 11.8118 9.8894 12.3646C9.8894 12.9173 10.3372 13.3654 10.8897 13.3654ZM6.55531 11.6973C6.55531 12.2501 6.10748 12.6982 5.55506 12.6982C5.00264 12.6982 4.55481 12.2501 4.55481 11.6973C4.55481 11.1446 5.00264 10.6965 5.55506 10.6965C6.10748 10.6965 6.55531 11.1446 6.55531 11.6973ZM4.88831 8.02765C5.44073 8.02765 5.88856 7.57956 5.88856 7.02682C5.88856 6.47408 5.44073 6.026 4.88831 6.026C4.33589 6.026 3.88806 6.47408 3.88806 7.02682C3.88806 7.57956 4.33589 8.02765 4.88831 8.02765ZM10.2228 8.36125C10.2228 8.91399 9.77496 9.36208 9.22254 9.36208C8.67012 9.36208 8.22229 8.91399 8.22229 8.36125C8.22229 7.80851 8.67012 7.36042 9.22254 7.36042C9.77496 7.36042 10.2228 7.80851 10.2228 8.36125Z" fill="#142049"/>
</svg>
