<svg width="16" height="16" viewBox="0 0 16 16" fill="none" xmlns="http://www.w3.org/2000/svg">
<path fill-rule="evenodd" clip-rule="evenodd" d="M11.2603 0.200405C10.9726 -0.0668016 10.5274 -0.0668016 10.2397 0.200405L6.73966 3.4504C6.43613 3.73226 6.41855 4.20681 6.70041 4.51034C6.98226 4.81387 7.45681 4.83145 7.76034 4.54959L10 2.46991V12.25C10 13.4926 8.99264 14.5 7.75 14.5H1.75C1.33579 14.5 1 14.8358 1 15.25C1 15.6642 1.33579 16 1.75 16H7.75C9.82107 16 11.5 14.3211 11.5 12.25V2.46991L13.7397 4.54959C14.0432 4.83145 14.5177 4.81387 14.7996 4.51034C15.0814 4.20681 15.0639 3.73226 14.7603 3.4504L11.2603 0.200405Z" fill="#142049"/>
</svg>
