<svg width="16" height="16" viewBox="0 0 16 16" fill="none" xmlns="http://www.w3.org/2000/svg">
<path fill-rule="evenodd" clip-rule="evenodd" d="M11.2613 15.7987C11.1273 15.9236 10.9476 16 10.75 16C10.5526 16 10.3729 15.9237 10.239 15.799L6.73966 12.5496C6.43613 12.2677 6.41855 11.7932 6.7004 11.4897C6.98225 11.1861 7.4568 11.1686 7.76034 11.4504L10 13.5301L10 3.75C10 2.50736 8.99264 1.5 7.75 1.5L1.75 1.5C1.33579 1.5 1 1.16421 1 0.75C1 0.335787 1.33579 0 1.75 0H7.75C9.82107 0 11.5 1.67893 11.5 3.75L11.5 13.5301L13.7397 11.4504C14.0432 11.1686 14.5177 11.1861 14.7996 11.4897C15.0814 11.7932 15.0639 12.2677 14.7603 12.5496L11.2613 15.7987Z" fill="#142049"/>
</svg>
