<svg width="16" height="16" viewBox="0 0 16 16" fill="none" xmlns="http://www.w3.org/2000/svg">
<path fill-rule="evenodd" clip-rule="evenodd" d="M0.572949 3.23664C0 4.02524 0 5.15016 0 7.4V8.6C0 10.8498 0 11.9748 0.572949 12.7634C0.757988 13.018 0.98196 13.242 1.23664 13.4271C2.02524 14 3.15016 14 5.4 14H10.6C12.8498 14 13.9748 14 14.7634 13.4271C15.018 13.242 15.242 13.018 15.4271 12.7634C16 11.9748 16 10.8498 16 8.6V7.4C16 5.15016 16 4.02524 15.4271 3.23664C15.242 2.98196 15.018 2.75799 14.7634 2.57295C13.9748 2 12.8498 2 10.6 2H5.4C3.15016 2 2.02524 2 1.23664 2.57295C0.98196 2.75799 0.757988 2.98196 0.572949 3.23664ZM4 9C4.55228 9 5 8.55228 5 8C5 7.44772 4.55228 7 4 7C3.44772 7 3 7.44772 3 8C3 8.55228 3.44772 9 4 9ZM9 8C9 8.55228 8.55229 9 8 9C7.44772 9 7 8.55228 7 8C7 7.44772 7.44772 7 8 7C8.55229 7 9 7.44772 9 8ZM12 9C12.5523 9 13 8.55228 13 8C13 7.44772 12.5523 7 12 7C11.4477 7 11 7.44772 11 8C11 8.55228 11.4477 9 12 9Z" fill="#142049"/>
</svg>
