<svg width="16" height="16" viewBox="0 0 16 16" fill="none" xmlns="http://www.w3.org/2000/svg">
<path fill-rule="evenodd" clip-rule="evenodd" d="M14.4572 7.25H11.75C11.3358 7.25 11 7.58579 11 8C11 8.41421 11.3358 8.75 11.75 8.75H14.4572C14.1136 11.7405 11.7405 14.1136 8.75 14.4572V11.75C8.75 11.3358 8.41421 11 8 11C7.58579 11 7.25 11.3358 7.25 11.75V14.4572C4.2595 14.1136 1.88638 11.7405 1.5428 8.75H4.25C4.66421 8.75 5 8.41421 5 8C5 7.58579 4.66421 7.25 4.25 7.25H1.5428C1.88638 4.2595 4.2595 1.88638 7.25 1.5428V4.25C7.25 4.66421 7.58579 5 8 5C8.41421 5 8.75 4.66421 8.75 4.25V1.5428C11.7405 1.88638 14.1136 4.2595 14.4572 7.25ZM8 16C12.4183 16 16 12.4183 16 8C16 3.58172 12.4183 0 8 0C3.58172 0 0 3.58172 0 8C0 12.4183 3.58172 16 8 16Z" fill="#142049"/>
</svg>
