<svg width="16" height="16" viewBox="0 0 16 16" fill="none" xmlns="http://www.w3.org/2000/svg">
<g clip-path="url(#clip0_1273_12254)">
<path d="M3.5 0.75C3.5 0.335786 3.16421 0 2.75 0C2.33579 0 2 0.335786 2 0.75V6.25C2 6.66421 2.33579 7 2.75 7C3.16421 7 3.5 6.66421 3.5 6.25V0.75Z" fill="#142049"/>
<path d="M5.25 4.25C5.25 3.83579 5.58579 3.5 6 3.5H7.25V0.75C7.25 0.335786 7.58579 0 8 0C8.41421 0 8.75 0.335786 8.75 0.75V3.5H10C10.4142 3.5 10.75 3.83579 10.75 4.25C10.75 4.66421 10.4142 5 10 5H6C5.58579 5 5.25 4.66421 5.25 4.25Z" fill="#142049"/>
<path d="M10.5 11.25C10.5 10.8358 10.8358 10.5 11.25 10.5H15.25C15.6642 10.5 16 10.8358 16 11.25C16 11.6642 15.6642 12 15.25 12H14V15.25C14 15.6642 13.6642 16 13.25 16C12.8358 16 12.5 15.6642 12.5 15.25V12H11.25C10.8358 12 10.5 11.6642 10.5 11.25Z" fill="#142049"/>
<path d="M0.75 8.49001C0.335786 8.49001 0 8.82579 0 9.24001C0 9.65422 0.335786 9.99001 0.75 9.99001H2.00014L2 10.0044V15.25C2 15.6642 2.33579 16 2.75 16C3.16421 16 3.5 15.6642 3.5 15.25V10.0044L3.49986 9.99001H4.75C5.16421 9.99001 5.5 9.65422 5.5 9.24001C5.5 8.82579 5.16421 8.49001 4.75 8.49001H0.75Z" fill="#142049"/>
<path d="M8 6.5C8.41421 6.5 8.75 6.83579 8.75 7.25V15.25C8.75 15.6642 8.41421 16 8 16C7.58579 16 7.25 15.6642 7.25 15.25V7.25C7.25 6.83579 7.58579 6.5 8 6.5Z" fill="#142049"/>
<path d="M13.25 0C13.6642 0 14 0.335786 14 0.75V8.25C14 8.66421 13.6642 9 13.25 9C12.8358 9 12.5 8.66421 12.5 8.25V0.75C12.5 0.335786 12.8358 0 13.25 0Z" fill="#142049"/>
</g>
<defs>
<clipPath id="clip0_1273_12254">
<rect width="16" height="16" fill="white"/>
</clipPath>
</defs>
</svg>
