<svg width="16" height="16" viewBox="0 0 16 16" fill="none" xmlns="http://www.w3.org/2000/svg">
<g clip-path="url(#clip0_1192_12151)">
<path fill-rule="evenodd" clip-rule="evenodd" d="M6.71421 0.999997L6.75 0.999999L6.7858 0.999997H6.78586C7.69007 0.99999 8.41933 0.999984 9.00761 1.0533C9.61395 1.10826 10.1438 1.22455 10.625 1.5024C11.1951 1.83154 11.6685 2.30493 11.9976 2.875C12.2754 3.35625 12.3917 3.88605 12.4467 4.4924C12.5 5.08069 12.5 5.80998 12.5 6.71423V6.74829L12.5 6.75V13.5301L14.7397 11.4504C15.0432 11.1685 15.5177 11.1861 15.7996 11.4897C16.0815 11.7932 16.0639 12.2677 15.7603 12.5496L12.2603 15.7996C11.9726 16.0668 11.5274 16.0668 11.2397 15.7996L7.73967 12.5496C7.43613 12.2677 7.41856 11.7932 7.70041 11.4897C7.98226 11.1861 8.45681 11.1685 8.76034 11.4504L11 13.5301L11 10.9498V6.75C11 5.80158 10.9993 5.14041 10.9528 4.62779C10.9073 4.12548 10.8226 3.8399 10.6986 3.625C10.5011 3.28296 10.217 2.99892 9.875 2.80144C9.6601 2.67737 9.37452 2.5927 8.87221 2.54718C8.35959 2.50072 7.69842 2.5 6.75 2.5C5.80159 2.5 5.14042 2.50072 4.6278 2.54718C4.12549 2.5927 3.83991 2.67737 3.625 2.80144C3.28296 2.99892 2.99893 3.28296 2.80145 3.625C2.67737 3.8399 2.59271 4.12548 2.54718 4.62779C2.50072 5.14041 2.5 5.80158 2.5 6.75V9.5C2.5 9.74402 2.50041 9.82983 2.50482 9.89716C2.57867 11.0239 3.47614 11.9213 4.60285 11.9952C4.67017 11.9996 4.75598 12 5 12L5.25 12C5.66422 12 6 12.3358 6 12.75C6 13.1642 5.66422 13.5 5.25 13.5H4.9711H4.92406H4.75C4.73742 13.5 4.72492 13.4997 4.7125 13.4991C4.63466 13.4981 4.5676 13.4961 4.50474 13.492C2.62691 13.3689 1.13111 11.8731 1.00803 9.99526C0.999975 9.87232 0.999986 9.73326 1 9.52899V9.52893L1 9.5V6.75L1 6.71421C0.999995 5.80997 0.999987 5.08069 1.05331 4.4924C1.10826 3.88605 1.22456 3.35625 1.50241 2.875C1.83154 2.30493 2.30493 1.83154 2.875 1.5024C3.35626 1.22455 3.88606 1.10826 4.4924 1.0533C5.08068 0.999984 5.80994 0.99999 6.71415 0.999997H6.71421Z" fill="#142049"/>
</g>
<defs>
<clipPath id="clip0_1192_12151">
<rect width="16" height="16" fill="white"/>
</clipPath>
</defs>
</svg>
