<svg width="16" height="16" viewBox="0 0 16 16" fill="none" xmlns="http://www.w3.org/2000/svg">
<path d="M5.75 11C5.75 11 6.66667 12 8 12C9.33333 12 10.25 11 10.25 11" stroke="#142049" stroke-width="1.5" stroke-linecap="round" stroke-linejoin="round"/>
<path d="M4.75 4.75V6.25" stroke="#142049" stroke-width="1.5" stroke-linecap="round" stroke-linejoin="round"/>
<path d="M11.25 4.75V6.25" stroke="#142049" stroke-width="1.5" stroke-linecap="round" stroke-linejoin="round"/>
<path d="M7.99996 4.75V8.25H7" stroke="#142049" stroke-width="1.5" stroke-linecap="round" stroke-linejoin="round"/>
<path d="M1.75 4.75V3.75C1.75 2.64543 2.64543 1.75 3.75 1.75H4.75" stroke="#142049" stroke-width="1.5" stroke-linecap="round" stroke-linejoin="round"/>
<path d="M1.75 11.25V12.25C1.75 13.3546 2.64543 14.25 3.75 14.25H4.75" stroke="#142049" stroke-width="1.5" stroke-linecap="round" stroke-linejoin="round"/>
<path d="M11.25 1.75L12.25 1.75C13.3546 1.75 14.25 2.64543 14.25 3.75L14.25 4.75" stroke="#142049" stroke-width="1.5" stroke-linecap="round" stroke-linejoin="round"/>
<path d="M11.24 14.25L12.24 14.25C13.3446 14.25 14.24 13.3546 14.24 12.25L14.24 11.25" stroke="#142049" stroke-width="1.5" stroke-linecap="round" stroke-linejoin="round"/>
</svg>
