<svg width="16" height="17" viewBox="0 0 16 17" fill="none" xmlns="http://www.w3.org/2000/svg">
<path fill-rule="evenodd" clip-rule="evenodd" d="M14.0633 12.45C15.9963 9.10195 14.8492 5.16066 11.5012 3.22766C10.2665 2.51484 9.33117 1.48274 8.73922 0.295883C8.61271 0.0422411 8.30924 -0.081029 8.06226 0.0580225C6.98258 0.665871 6.11001 1.59825 5.57686 2.72286C5.2079 3.50114 5.00149 4.37147 5.00149 5.29001C5.00149 5.3542 5.0025 5.41816 5.0045 5.48187C5.01793 5.90947 4.56382 6.22671 4.23118 5.95768C3.88265 5.67581 3.56633 5.35569 3.2886 5.00372C3.08609 4.74707 2.69709 4.70816 2.49548 4.96552C2.29361 5.2232 2.10739 5.49817 1.93899 5.78984C0.00599432 9.13789 1.15312 13.167 4.50117 15.1C8 17 12.1304 15.798 14.0633 12.45ZM12.0015 10.29C12.0015 12.4992 10.2106 14.29 8.0015 14.29C6.08821 14.29 4.48057 12.8916 4.09164 11.1084C3.99808 10.6794 4.53114 10.4649 4.90543 10.6945C5.39146 10.9926 5.93878 11.1865 6.50685 11.2585C6.80948 11.2969 7.03757 11.019 7.01629 10.7147C7.00648 10.5744 7.0015 10.4328 7.0015 10.29C7.0015 8.86314 7.49959 7.55257 8.33139 6.52273C8.43521 6.3942 8.60043 6.33112 8.76267 6.36237C10.6078 6.71784 12.0015 8.34118 12.0015 10.29Z" fill="#142049"/>
</svg>
