<svg width="16" height="16" viewBox="0 0 16 16" fill="none" xmlns="http://www.w3.org/2000/svg">
<path fill-rule="evenodd" clip-rule="evenodd" d="M3.5 3.75C3.5 3.05964 4.05964 2.5 4.75 2.5H6.25C6.94036 2.5 7.5 3.05964 7.5 3.75V12.25C7.5 12.9404 6.94036 13.5 6.25 13.5H4.75C4.05964 13.5 3.5 12.9404 3.5 12.25V8.75H5.25C5.66421 8.75 6 8.41421 6 8C6 7.58579 5.66421 7.25 5.25 7.25H3.5V3.75ZM2 7.25V3.75C2 2.23122 3.23122 1 4.75 1H6.25C7.76878 1 9 2.23122 9 3.75V7.25L13.5241 7.25L11.2017 4.76174C10.9191 4.45893 10.9354 3.98433 11.2383 3.70171C11.5411 3.41908 12.0157 3.43545 12.2983 3.73826L15.7983 7.48826C16.0672 7.77642 16.0672 8.22358 15.7983 8.51174L12.2983 12.2617C12.0157 12.5646 11.5411 12.5809 11.2383 12.2983C10.9354 12.0157 10.9191 11.5411 11.2017 11.2383L13.5241 8.75L9 8.75V12.25C9 13.7688 7.76878 15 6.25 15H4.75C3.23122 15 2 13.7688 2 12.25V8.75H0.75C0.335786 8.75 0 8.41421 0 8C0 7.58579 0.335786 7.25 0.75 7.25H2Z" fill="#142049"/>
</svg>
