<svg width="16" height="16" viewBox="0 0 16 16" fill="none" xmlns="http://www.w3.org/2000/svg">
<g clip-path="url(#clip0_861_8781)">
<path fill-rule="evenodd" clip-rule="evenodd" d="M1.5 8C1.5 5.65279 3.40279 3.75 5.75 3.75C8.09721 3.75 10 5.65279 10 8C10 10.3472 8.09721 12.25 5.75 12.25C3.40279 12.25 1.5 10.3472 1.5 8ZM5.75 2.25C2.57436 2.25 0 4.82436 0 8C0 11.1756 2.57436 13.75 5.75 13.75C8.92564 13.75 11.5 11.1756 11.5 8C11.5 4.82436 8.92564 2.25 5.75 2.25ZM5.75 9C6.30228 9 6.75 8.55228 6.75 8C6.75 7.44772 6.30228 7 5.75 7C5.19772 7 4.75 7.44772 4.75 8C4.75 8.55228 5.19772 9 5.75 9Z" fill="#142049"/>
<path opacity="0.6" fill-rule="evenodd" clip-rule="evenodd" d="M8.96967 5.03033C8.67678 4.73744 8.67678 4.26256 8.96967 3.96967L12.7197 0.21967C13.0126 -0.0732233 13.4874 -0.0732233 13.7803 0.21967C14.0732 0.512563 14.0732 0.987437 13.7803 1.28033L10.0303 5.03033C9.73744 5.32322 9.26256 5.32322 8.96967 5.03033ZM10.25 8C10.25 7.58579 10.5858 7.25 11 7.25L15.25 7.25C15.6642 7.25 16 7.58579 16 8C16 8.41421 15.6642 8.75 15.25 8.75H11C10.5858 8.75 10.25 8.41421 10.25 8ZM10.0303 10.9697C9.73744 10.6768 9.26256 10.6768 8.96967 10.9697C8.67678 11.2626 8.67678 11.7374 8.96967 12.0303L12.7197 15.7803C13.0126 16.0732 13.4874 16.0732 13.7803 15.7803C14.0732 15.4874 14.0732 15.0126 13.7803 14.7197L10.0303 10.9697Z" fill="#142049"/>
</g>
<defs>
<clipPath id="clip0_861_8781">
<rect width="16" height="16" fill="white"/>
</clipPath>
</defs>
</svg>
