<svg width="16" height="17" viewBox="0 0 16 17" fill="none" xmlns="http://www.w3.org/2000/svg">
<path fill-rule="evenodd" clip-rule="evenodd" d="M3 0.75C3.41421 0.75 3.75 1.08579 3.75 1.5V11.0945C4.80611 11.3663 5.63715 12.1988 5.90695 13.2557C5.93744 13.2519 5.96849 13.25 6 13.25C8.34534 13.25 9.86015 12.5524 10.8056 11.4494C11.7082 10.3964 12.1871 8.86417 12.2442 6.90399C10.9532 6.56894 10 5.39579 10 4C10 2.34315 11.3431 1 13 1C14.6569 1 16 2.34315 16 4C16 5.3998 15.0413 6.57568 13.7447 6.90685C13.6869 9.08564 13.1559 11.0123 11.9444 12.4256C10.6399 13.9476 8.65466 14.75 6 14.75C5.96849 14.75 5.93744 14.7481 5.90695 14.7443C5.57591 16.0411 4.39994 17 3 17C1.34315 17 0 15.6569 0 14C0 12.6021 0.95608 11.4275 2.25 11.0945V1.5C2.25 1.08579 2.58579 0.75 3 0.75ZM11.5 4C11.5 3.17157 12.1716 2.5 13 2.5C13.8284 2.5 14.5 3.17157 14.5 4C14.5 4.82843 13.8284 5.5 13 5.5C12.1716 5.5 11.5 4.82843 11.5 4ZM1.5 14C1.5 13.1716 2.17157 12.5 3 12.5C3.82843 12.5 4.5 13.1716 4.5 14C4.5 14.8284 3.82843 15.5 3 15.5C2.17157 15.5 1.5 14.8284 1.5 14Z" fill="#142049"/>
</svg>
