<svg width="16" height="16" viewBox="0 0 16 16" fill="none" xmlns="http://www.w3.org/2000/svg">
<path fill-rule="evenodd" clip-rule="evenodd" d="M1.5 3C1.5 2.17157 2.17157 1.5 3 1.5C3.82843 1.5 4.5 2.17157 4.5 3C4.5 3.82843 3.82843 4.5 3 4.5C2.17157 4.5 1.5 3.82843 1.5 3ZM3 0C1.34315 0 0 1.34315 0 3C0 4.39788 0.95608 5.57245 2.25 5.90549V15.25C2.25 15.6642 2.58579 16 3 16C3.41421 16 3.75 15.6642 3.75 15.25V10.3263C5.11211 12.2756 7.32832 13.6204 10.0922 13.7411C10.4222 15.0396 11.5989 16 13 16C14.6569 16 16 14.6569 16 13C16 11.3431 14.6569 10 13 10C11.6059 10 10.4339 10.9509 10.0972 12.2396C6.41671 12.0474 3.9463 9.22824 3.76118 5.90259C5.04942 5.56568 6 4.39385 6 3C6 1.34315 4.65685 0 3 0ZM11.5 13C11.5 12.1716 12.1716 11.5 13 11.5C13.8284 11.5 14.5 12.1716 14.5 13C14.5 13.8284 13.8284 14.5 13 14.5C12.1716 14.5 11.5 13.8284 11.5 13Z" fill="#142049"/>
</svg>
