<svg width="16" height="16" viewBox="0 0 16 16" fill="none" xmlns="http://www.w3.org/2000/svg">
<path fill-rule="evenodd" clip-rule="evenodd" d="M1.19202 2.14489C1 2.55088 1 3.07559 1 4.125C1 5.17441 1 5.69912 1.19202 6.10511C1.38986 6.5234 1.7266 6.86014 2.14489 7.05798C2.55088 7.25 3.07559 7.25 4.125 7.25C5.17441 7.25 5.69912 7.25 6.10511 7.05798C6.5234 6.86014 6.86014 6.5234 7.05798 6.10511C7.25 5.69912 7.25 5.17441 7.25 4.125C7.25 3.07559 7.25 2.55088 7.05798 2.14489C6.86014 1.7266 6.5234 1.38986 6.10511 1.19202C5.69912 1 5.17441 1 4.125 1C3.07559 1 2.55088 1 2.14489 1.19202C1.7266 1.38986 1.38986 1.7266 1.19202 2.14489ZM1.19202 9.89489C1 10.3009 1 10.8256 1 11.875C1 12.9244 1 13.4491 1.19202 13.8551C1.38986 14.2734 1.7266 14.6101 2.14489 14.808C2.55088 15 3.07559 15 4.125 15C5.17441 15 5.69912 15 6.10511 14.808C6.5234 14.6101 6.86014 14.2734 7.05798 13.8551C7.25 13.4491 7.25 12.9244 7.25 11.875C7.25 10.8256 7.25 10.3009 7.05798 9.89489C6.86014 9.4766 6.5234 9.13986 6.10511 8.94202C5.69912 8.75 5.17441 8.75 4.125 8.75C3.07559 8.75 2.55088 8.75 2.14489 8.94202C1.7266 9.13986 1.38986 9.4766 1.19202 9.89489ZM8.75 4.125C8.75 3.07559 8.75 2.55088 8.94202 2.14489C9.13986 1.7266 9.4766 1.38986 9.89489 1.19202C10.3009 1 10.8256 1 11.875 1C12.9244 1 13.4491 1 13.8551 1.19202C14.2734 1.38986 14.6101 1.7266 14.808 2.14489C15 2.55088 15 3.07559 15 4.125C15 5.17441 15 5.69912 14.808 6.10511C14.6101 6.5234 14.2734 6.86014 13.8551 7.05798C13.4491 7.25 12.9244 7.25 11.875 7.25C10.8256 7.25 10.3009 7.25 9.89489 7.05798C9.4766 6.86014 9.13986 6.5234 8.94202 6.10511C8.75 5.69912 8.75 5.17441 8.75 4.125ZM8.94202 9.89489C8.75 10.3009 8.75 10.8256 8.75 11.875C8.75 12.9244 8.75 13.4491 8.94202 13.8551C9.13986 14.2734 9.4766 14.6101 9.89489 14.808C10.3009 15 10.8256 15 11.875 15C12.9244 15 13.4491 15 13.8551 14.808C14.2734 14.6101 14.6101 14.2734 14.808 13.8551C15 13.4491 15 12.9244 15 11.875C15 10.8256 15 10.3009 14.808 9.89489C14.6101 9.4766 14.2734 9.13986 13.8551 8.94202C13.4491 8.75 12.9244 8.75 11.875 8.75C10.8256 8.75 10.3009 8.75 9.89489 8.94202C9.4766 9.13986 9.13986 9.4766 8.94202 9.89489Z" fill="#142049"/>
</svg>
