<svg width="16" height="16" viewBox="0 0 16 16" fill="none" xmlns="http://www.w3.org/2000/svg">
<path fill-rule="evenodd" clip-rule="evenodd" d="M4.125 1C2.39911 1 1 2.39911 1 4.125C1 5.85089 2.39911 7.25 4.125 7.25C5.85089 7.25 7.25 5.85089 7.25 4.125C7.25 2.39911 5.85089 1 4.125 1ZM9.19098 9.41221C9 9.67508 9 10.0501 9 10.8V12.95C9 13.6999 9 14.0749 9.19098 14.3378C9.25266 14.4227 9.32732 14.4973 9.41221 14.559C9.67508 14.75 10.0501 14.75 10.8 14.75H12.95C13.6999 14.75 14.0749 14.75 14.3378 14.559C14.4227 14.4973 14.4973 14.4227 14.559 14.3378C14.75 14.0749 14.75 13.6999 14.75 12.95V10.8C14.75 10.0501 14.75 9.67508 14.559 9.41221C14.4973 9.32732 14.4227 9.25266 14.3378 9.19098C14.0749 9 13.6999 9 12.95 9H10.8C10.0501 9 9.67508 9 9.41221 9.19098C9.32732 9.25266 9.25266 9.32732 9.19098 9.41221ZM11.3673 1.56982C11.5652 1.21477 11.6641 1.03725 11.81 1.00707C11.8557 0.997617 11.903 0.997644 11.9487 1.00715C12.0946 1.0375 12.1933 1.21513 12.3907 1.5704L14.7749 5.8614C14.9477 6.17236 15.0341 6.32784 14.9875 6.45077C14.9728 6.48955 14.9498 6.5251 14.9198 6.55519C14.8247 6.65056 14.6375 6.65056 14.263 6.65056H9.48756C9.11264 6.65056 8.92518 6.65056 8.83013 6.55508C8.80013 6.52496 8.77709 6.48938 8.76242 6.45056C8.71595 6.32752 8.80264 6.17196 8.97603 5.86082L11.3673 1.56982ZM7.23764 9.05419C7.29815 8.87374 7.12626 8.70185 6.94581 8.76236L4.19828 9.68366C4.15073 9.69961 4.09927 9.69961 4.05172 9.68366L1.30419 8.76236C1.12374 8.70185 0.951854 8.87374 1.01236 9.05419L1.93366 11.8017C1.94961 11.8493 1.94961 11.9007 1.93366 11.9483L1.01236 14.6958C0.951854 14.8763 1.12374 15.0481 1.30419 14.9876L4.05172 14.0663C4.09927 14.0504 4.15073 14.0504 4.19828 14.0663L6.94581 14.9876C7.12626 15.0481 7.29815 14.8763 7.23764 14.6958L6.31634 11.9483C6.30039 11.9007 6.30039 11.8493 6.31634 11.8017L7.23764 9.05419Z" fill="#142049"/>
</svg>
