<svg width="16" height="16" viewBox="0 0 16 16" fill="none" xmlns="http://www.w3.org/2000/svg">
<path fill-rule="evenodd" clip-rule="evenodd" d="M0.572949 3.23664C0 4.02524 0 5.15016 0 7.4V8.6C0 10.8498 0 11.9748 0.572949 12.7634C0.757988 13.018 0.98196 13.242 1.23664 13.4271C2.02524 14 3.15016 14 5.4 14H10.6C12.8498 14 13.9748 14 14.7634 13.4271C15.018 13.242 15.242 13.018 15.4271 12.7634C16 11.9748 16 10.8498 16 8.6V7.4C16 5.15016 16 4.02524 15.4271 3.23664C15.242 2.98196 15.018 2.75799 14.7634 2.57295C13.9748 2 12.8498 2 10.6 2H5.4C3.15016 2 2.02524 2 1.23664 2.57295C0.98196 2.75799 0.757988 2.98196 0.572949 3.23664ZM6.02469 11V5.3125H4.88797V11H6.02469ZM8.70578 11H9.04562C9.38156 11 9.68495 10.9466 9.95578 10.8398C10.2266 10.7331 10.4571 10.5781 10.6472 10.375C10.8399 10.1693 10.9883 9.91797 11.0925 9.62109C11.1967 9.32422 11.2487 8.98307 11.2487 8.59766V7.71875C11.2487 7.33594 11.1967 6.99479 11.0925 6.69531C10.9883 6.39583 10.8399 6.14453 10.6472 5.94141C10.4545 5.73568 10.224 5.57943 9.95578 5.47266C9.68755 5.36589 9.38937 5.3125 9.06125 5.3125H8.70578H8.02219H7.56125V11H8.04172H8.70578ZM8.70578 10.0547H9.04562C9.32167 10.0547 9.53651 10.0052 9.69016 9.90625C9.8438 9.80729 9.95187 9.65104 10.0144 9.4375C10.0795 9.22396 10.112 8.94401 10.112 8.59766V7.71094C10.112 7.44792 10.0951 7.22526 10.0612 7.04297C10.0274 6.85807 9.9701 6.70964 9.88937 6.59766C9.80865 6.48307 9.70057 6.39844 9.56516 6.34375C9.42974 6.28906 9.26177 6.26172 9.06125 6.26172H8.70578V10.0547Z" fill="#142049"/>
</svg>
