<svg width="16" height="16" viewBox="0 0 16 16" fill="none" xmlns="http://www.w3.org/2000/svg">
<path fill-rule="evenodd" clip-rule="evenodd" d="M2.74998 1C2.33576 1 1.99998 1.33579 1.99998 1.75C1.99998 2.16421 2.33576 2.5 2.74998 2.5H5.04464L6.25027 4.81853L1.08244 14.9081C0.893613 15.2768 1.0394 15.7287 1.40807 15.9175C1.77674 16.1064 2.22868 15.9606 2.41751 15.5919L7.0993 6.45127L11.3346 14.596C11.4636 14.8443 11.7202 15 12 15H15.25C15.6642 15 16 14.6642 16 14.25C16 13.8358 15.6642 13.5 15.25 13.5H12.4553L6.16539 1.40399C6.0363 1.15575 5.77977 1 5.49998 1H2.74998Z" fill="#142049"/>
</svg>
