<svg width="16" height="16" viewBox="0 0 16 16" fill="none" xmlns="http://www.w3.org/2000/svg">
<g clip-path="url(#clip0_1140_9381)">
<path fill-rule="evenodd" clip-rule="evenodd" d="M7.97107 -1.19209e-06L8 3.57628e-07H9C10.4888 3.57628e-07 11.7243 1.08449 11.9596 2.50659C11.9858 2.58292 12 2.6648 12 2.75V3V3.25C12 3.66421 11.6642 4 11.25 4C10.8358 4 10.5 3.66421 10.5 3.25V3C10.5 2.17157 9.82843 1.5 9 1.5H8C7.75598 1.5 7.67017 1.50041 7.60284 1.50482C6.47614 1.57867 5.57867 2.47614 5.50482 3.60284C5.5004 3.67017 5.5 3.75598 5.5 4V6.01227C5.92287 6 6.41579 6 7 6H9C10.8692 6 11.8038 6 12.5 6.40192C12.9561 6.66523 13.3348 7.04394 13.5981 7.5C14 8.19615 14 9.13077 14 11C14 12.8692 14 13.8038 13.5981 14.5C13.3348 14.9561 12.9561 15.3348 12.5 15.5981C11.8038 16 10.8692 16 9 16H7C5.13077 16 4.19615 16 3.5 15.5981C3.04394 15.3348 2.66523 14.9561 2.40192 14.5C2 13.8038 2 12.8692 2 11C2 9.13077 2 8.19615 2.40192 7.5C2.66523 7.04394 3.04394 6.66523 3.5 6.40192C3.65274 6.31374 3.81695 6.24491 4 6.19117V4L4 3.97107C3.99998 3.76677 3.99997 3.6277 4.00803 3.50474C4.13111 1.6269 5.6269 0.131109 7.50474 0.0080294C7.6277 -2.96831e-05 7.76677 -1.81794e-05 7.97107 -1.19209e-06ZM8 9C8.41421 9 8.75 9.33579 8.75 9.75V12.25C8.75 12.6642 8.41421 13 8 13C7.58579 13 7.25 12.6642 7.25 12.25V9.75C7.25 9.33579 7.58579 9 8 9Z" fill="#142049"/>
</g>
<defs>
<clipPath id="clip0_1140_9381">
<rect width="16" height="16" fill="white"/>
</clipPath>
</defs>
</svg>
