<svg width="16" height="16" viewBox="0 0 16 16" fill="none" xmlns="http://www.w3.org/2000/svg">
<g clip-path="url(#clip0_1140_9382)">
<path fill-rule="evenodd" clip-rule="evenodd" d="M8 0H7.97107C7.76677 -1.80602e-05 7.6277 -2.95639e-05 7.50474 0.00802952C5.6269 0.13111 4.13111 1.6269 4.00803 3.50474C3.99997 3.6277 3.99998 3.76677 4 3.97107L4 4V6.19117C3.81695 6.24491 3.65274 6.31374 3.5 6.40192C3.04394 6.66523 2.66523 7.04394 2.40192 7.5C2 8.19615 2 9.13077 2 11C2 12.8692 2 13.8038 2.40192 14.5C2.66523 14.9561 3.04394 15.3348 3.5 15.5981C4.19615 16 5.13077 16 7 16H9C10.8692 16 11.8038 16 12.5 15.5981C12.9561 15.3348 13.3348 14.9561 13.5981 14.5C14 13.8038 14 12.8692 14 11C14 9.13077 14 8.19615 13.5981 7.5C13.3348 7.04394 12.9561 6.66523 12.5 6.40192C12.3473 6.31374 12.183 6.24491 12 6.19117V4L12 3.97107C12 3.76677 12 3.6277 11.992 3.50474C11.8689 1.6269 10.3731 0.13111 8.49526 0.00802952C8.3723 -2.95639e-05 8.23323 -1.80602e-05 8.02893 0H8ZM10.5 6.01227V4C10.5 3.75598 10.4996 3.67017 10.4952 3.60284C10.4213 2.47614 9.52386 1.57867 8.39716 1.50482C8.32983 1.50041 8.24402 1.5 8 1.5C7.75598 1.5 7.67017 1.50041 7.60284 1.50482C6.47614 1.57867 5.57867 2.47614 5.50482 3.60284C5.5004 3.67017 5.5 3.75598 5.5 4V6.01227C5.92287 6 6.41579 6 7 6H9C9.58421 6 10.0771 6 10.5 6.01227ZM8 9C8.41421 9 8.75 9.33579 8.75 9.75V12.25C8.75 12.6642 8.41421 13 8 13C7.58579 13 7.25 12.6642 7.25 12.25V9.75C7.25 9.33579 7.58579 9 8 9Z" fill="#142049"/>
</g>
<defs>
<clipPath id="clip0_1140_9382">
<rect width="16" height="16" fill="white"/>
</clipPath>
</defs>
</svg>
