<svg width="16" height="16" viewBox="0 0 16 16" fill="none" xmlns="http://www.w3.org/2000/svg">
<path fill-rule="evenodd" clip-rule="evenodd" d="M8.53956 0.368055C8.34646 -0.121549 7.65355 -0.12155 7.46045 0.368055L5.54684 5.22008C5.48789 5.36956 5.36956 5.48788 5.22008 5.54684L0.368058 7.46045C-0.121546 7.65354 -0.121547 8.34646 0.368058 8.53955L5.22008 10.4532C5.36956 10.5121 5.48789 10.6304 5.54684 10.7799L7.46045 15.6319C7.65355 16.1216 8.34646 16.1216 8.53956 15.6319L10.4532 10.7799C10.5121 10.6304 10.6304 10.5121 10.7799 10.4532L15.6319 8.53955C16.1216 8.34646 16.1216 7.65354 15.6319 7.46045L10.7799 5.54684C10.6304 5.48788 10.5121 5.36956 10.4532 5.22008L8.53956 0.368055ZM3.99999 2.99998C3.99999 3.55227 3.55227 3.99998 2.99999 3.99998C2.4477 3.99998 1.99999 3.55227 1.99999 2.99998C1.99999 2.4477 2.4477 1.99998 2.99999 1.99998C3.55227 1.99998 3.99999 2.4477 3.99999 2.99998ZM14 2.99998C14 3.55227 13.5523 3.99998 13 3.99998C12.4477 3.99998 12 3.55227 12 2.99998C12 2.4477 12.4477 1.99998 13 1.99998C13.5523 1.99998 14 2.4477 14 2.99998ZM2.99999 14C3.55227 14 3.99999 13.5523 3.99999 13C3.99999 12.4477 3.55227 12 2.99999 12C2.4477 12 1.99999 12.4477 1.99999 13C1.99999 13.5523 2.4477 14 2.99999 14ZM14 13C14 13.5523 13.5523 14 13 14C12.4477 14 12 13.5523 12 13C12 12.4477 12.4477 12 13 12C13.5523 12 14 12.4477 14 13Z" fill="#142049"/>
</svg>
