<svg width="16" height="16" viewBox="0 0 16 16" fill="none" xmlns="http://www.w3.org/2000/svg">
<path fill-rule="evenodd" clip-rule="evenodd" d="M8 3C8 4.54792 8.7034 5.93156 9.80801 6.8487C9.08582 7.56064 8.09422 8 7 8C4.79086 8 3 6.20914 3 4C3 1.79086 4.79086 0 7 0C7.62057 0 8.20814 0.141321 8.73227 0.393535C8.26775 1.15251 8 2.04499 8 3ZM5.8 9H7H8.2C8.9432 9 9.31481 9 9.62574 9.04925C11.3373 9.32033 12.6797 10.6627 12.9508 12.3743C13 12.6852 13 13.0568 13 13.8C13 13.9858 13 14.0787 12.9877 14.1564C12.9199 14.5843 12.5843 14.9199 12.1564 14.9877C12.0787 15 11.9858 15 11.8 15H2.2C2.0142 15 1.9213 15 1.84357 14.9877C1.41567 14.9199 1.08008 14.5843 1.01231 14.1564C1 14.0787 1 13.9858 1 13.8C1 13.0568 1 12.6852 1.04925 12.3743C1.32033 10.6627 2.66269 9.32033 4.37426 9.04925C4.68519 9 5.0568 9 5.8 9ZM12.25 0.75C12.25 0.335786 12.5858 0 13 0C13.4142 0 13.75 0.335786 13.75 0.75V2.25H15.25C15.6642 2.25 16 2.58579 16 3C16 3.41421 15.6642 3.75 15.25 3.75H13.75V5.25C13.75 5.66421 13.4142 6 13 6C12.5858 6 12.25 5.66421 12.25 5.25V3.75H10.75C10.3358 3.75 10 3.41421 10 3C10 2.58579 10.3358 2.25 10.75 2.25H12.25V0.75Z" fill="#142049"/>
</svg>
