<svg width="16" height="16" viewBox="0 0 16 16" fill="none" xmlns="http://www.w3.org/2000/svg">
<path fill-rule="evenodd" clip-rule="evenodd" d="M0.00168462 6.5C0 6.77846 0 7.07769 0 7.4V8.6C0 10.8498 0 11.9748 0.572949 12.7634C0.757988 13.018 0.98196 13.242 1.23664 13.4271C2.02524 14 3.15016 14 5.4 14H10.6C12.8498 14 13.9748 14 14.7634 13.4271C15.018 13.242 15.242 13.018 15.4271 12.7634C16 11.9748 16 10.8498 16 8.6V7.4C16 7.07768 16 6.77846 15.9983 6.5H0.00168462ZM0.0501072 5H15.9499C15.8871 4.21778 15.7457 3.6752 15.4271 3.23664C15.242 2.98196 15.018 2.75799 14.7634 2.57295C13.9748 2 12.8498 2 10.6 2H5.4C3.15016 2 2.02524 2 1.23664 2.57295C0.98196 2.75799 0.757988 2.98196 0.572949 3.23664C0.254318 3.6752 0.112886 4.21778 0.0501072 5Z" fill="#142049"/>
</svg>
