<svg width="16" height="16" viewBox="0 0 16 16" fill="none" xmlns="http://www.w3.org/2000/svg">
<path fill-rule="evenodd" clip-rule="evenodd" d="M1.07215 4.26122L2.82899 2.12018C3.22964 1.63192 3.42996 1.38779 3.69477 1.23395C3.78215 1.18319 3.87403 1.14016 3.96931 1.10539C4.25807 1 4.57908 1 5.22111 1H10.7789C11.4209 1 11.7419 1 12.0307 1.10539C12.126 1.14016 12.2179 1.18319 12.3052 1.23395C12.57 1.38779 12.7704 1.63192 13.171 2.12018L14.9278 4.26122C15.5951 5.07437 15.9287 5.48094 15.9873 5.94607C16.0064 6.0974 16.0039 6.25058 15.9799 6.40124C15.9062 6.86434 15.6212 7.53615 14.9278 8.32832L10.3304 14.2348C9.37479 15.3266 8.89697 15.8725 8.29284 15.9753C8.09908 16.0082 7.90092 16.0082 7.70716 15.9753C7.10303 15.8725 6.62521 15.3266 5.66959 14.2348L1.07215 8.32832C0.378801 7.53615 0.0938262 6.86434 0.0200711 6.40124C-0.00392508 6.25058 -0.00641775 6.0974 0.0126637 5.94607C0.071313 5.48094 0.404926 5.07437 1.07215 4.26123L1.07215 4.26122ZM3.8046 5.81464C3.42609 5.64641 2.98287 5.81688 2.81464 6.1954C2.64641 6.57391 2.81688 7.01713 3.1954 7.18536L5.25856 8.10232C7.00388 8.87802 8.99612 8.87802 10.7414 8.10232L12.8046 7.18536C13.1831 7.01713 13.3536 6.57391 13.1854 6.1954C13.0171 5.81688 12.5739 5.64641 12.1954 5.81464L10.1322 6.73161C8.77476 7.33492 7.22524 7.33492 5.86777 6.73161L3.8046 5.81464Z" fill="#142049"/>
</svg>
