<svg width="16" height="16" viewBox="0 0 16 16" fill="none" xmlns="http://www.w3.org/2000/svg">
<path fill-rule="evenodd" clip-rule="evenodd" d="M0 4.75C0 3.23122 1.23122 2 2.75 2H13.25C14.7688 2 16 3.23122 16 4.75C16 6.26878 14.7688 7.5 13.25 7.5H2.75C1.23122 7.5 0 6.26878 0 4.75ZM4 4.75C4 5.30228 3.55228 5.75 3 5.75C2.44772 5.75 2 5.30228 2 4.75C2 4.19772 2.44772 3.75 3 3.75C3.55228 3.75 4 4.19772 4 4.75ZM0 11.25C0 9.73122 1.23122 8.5 2.75 8.5H13.25C14.7688 8.5 16 9.73122 16 11.25C16 12.7688 14.7688 14 13.25 14H2.75C1.23122 14 0 12.7688 0 11.25ZM4 11.25C4 11.8023 3.55228 12.25 3 12.25C2.44772 12.25 2 11.8023 2 11.25C2 10.6977 2.44772 10.25 3 10.25C3.55228 10.25 4 10.6977 4 11.25Z" fill="#142049"/>
</svg>
