<svg width="16" height="16" viewBox="0 0 16 16" fill="none" xmlns="http://www.w3.org/2000/svg">
<g clip-path="url(#clip0_1211_12237)">
<path fill-rule="evenodd" clip-rule="evenodd" d="M1.00001 4.50846L1 6.98241C1 12.5472 4.96808 14.9267 6.92905 15.7629C7.23863 15.8949 7.39342 15.9609 7.79869 15.9936C7.88108 16.0003 8.11892 16.0003 8.20131 15.9936C8.60658 15.9609 8.76137 15.8949 9.07095 15.7629C11.0319 14.9267 15 12.5472 15 6.98241V4.50848C15 3.32072 15 2.72684 14.7278 2.25997C14.6391 2.10776 14.5306 1.96794 14.4052 1.84414C14.0207 1.46443 13.4455 1.31678 12.2951 1.02147L9.11885 0.206151C8.62454 0.079264 8.37738 0.0158207 8.12558 0.00315613C8.04191 -0.00105205 7.95809 -0.00105204 7.87442 0.00315614C7.62262 0.0158207 7.37546 0.0792637 6.88116 0.20615L6.88115 0.206151L3.70493 1.02147C2.55451 1.31677 1.9793 1.46442 1.59476 1.84413C1.46939 1.96793 1.36093 2.10775 1.27219 2.25996C1.00001 2.72683 1.00001 3.32071 1.00001 4.50846ZM6.13152 10.7439C6.02614 10.7629 5.92988 10.7375 5.84273 10.6676C5.75762 10.5999 5.70594 10.511 5.6877 10.4009C5.66946 10.2907 5.68365 10.1648 5.73026 10.0229L6.33519 8.14261L4.79095 6.98332C4.67341 6.8965 4.59033 6.80334 4.54169 6.70382C4.49305 6.60218 4.48697 6.49737 4.52345 6.38938C4.5579 6.28351 4.62174 6.20516 4.71496 6.15434C4.81021 6.10141 4.92876 6.076 5.07062 6.07812L6.96747 6.094L7.54504 4.20101C7.58962 4.05491 7.64941 3.94374 7.72439 3.86752C7.8014 3.78917 7.8936 3.75 8.00101 3.75C8.10842 3.75 8.19961 3.78917 8.2746 3.86752C8.3516 3.94374 8.4124 4.05491 8.45699 4.20101L9.03151 6.094L10.9284 6.07812C11.0722 6.076 11.1908 6.10141 11.284 6.15434C11.3793 6.20516 11.4441 6.28456 11.4786 6.39255C11.513 6.50054 11.5059 6.6043 11.4573 6.70382C11.4107 6.80334 11.3286 6.8965 11.2111 6.98332L9.6638 8.14261L10.2718 10.0229C10.3184 10.1648 10.3326 10.2907 10.3143 10.4009C10.2961 10.511 10.2434 10.5999 10.1562 10.6676C10.0691 10.7375 9.97285 10.7629 9.86747 10.7439C9.76208 10.7269 9.65062 10.674 9.53308 10.5851L8.00101 9.40672L6.4659 10.5851C6.35039 10.674 6.23893 10.7269 6.13152 10.7439Z" fill="#142049"/>
</g>
<defs>
<clipPath id="clip0_1211_12237">
<rect width="16" height="16" fill="white"/>
</clipPath>
</defs>
</svg>
