<svg width="16" height="16" viewBox="0 0 16 16" fill="none" xmlns="http://www.w3.org/2000/svg">
<path fill-rule="evenodd" clip-rule="evenodd" d="M1.00001 4.5094L1 6.98245C1 12.5465 4.96827 14.9256 6.92919 15.7616C7.23875 15.8936 7.39352 15.9596 7.79872 15.9923C7.8811 15.999 8.1189 15.999 8.20128 15.9923C8.60648 15.9596 8.76125 15.8936 9.0708 15.7616C11.0317 14.9257 15 12.5465 15 6.98245V4.50942C15 3.32162 15 2.72772 14.7278 2.26084C14.6391 2.10862 14.5306 1.9688 14.4052 1.845C14.0207 1.46529 13.4454 1.31765 12.2949 1.02238L9.11869 0.207175C8.62445 0.0803252 8.37733 0.0169004 8.12556 0.00423954C8.04191 3.25881e-05 7.95809 3.25895e-05 7.87444 0.00423955C7.62267 0.0169004 7.37555 0.0803253 6.88131 0.207175L3.70505 1.02238C2.55459 1.31765 1.97935 1.46529 1.5948 1.845C1.46942 1.96879 1.36095 2.10862 1.27221 2.26083C1.00001 2.72771 1.00001 3.32161 1.00001 4.5094ZM12.3176 5.49021C12.5884 5.17673 12.5537 4.70312 12.2402 4.43238C11.9267 4.16164 11.4531 4.1963 11.1824 4.50979L7.03035 9.3174L5.84201 7.78954C5.58771 7.46258 5.11651 7.40368 4.78954 7.65799C4.46258 7.91229 4.40368 8.3835 4.65799 8.71046L6.40799 10.9605C6.54594 11.1378 6.75614 11.244 6.98076 11.2498C7.20538 11.2555 7.42075 11.1603 7.56762 10.9902L12.3176 5.49021Z" fill="#142049"/>
</svg>
