<svg width="16" height="16" viewBox="0 0 16 16" fill="none" xmlns="http://www.w3.org/2000/svg">
<path fill-rule="evenodd" clip-rule="evenodd" d="M2.5 4.75C2.5 3.50736 3.50736 2.5 4.75 2.5H8.375C8.78921 2.5 9.125 2.16421 9.125 1.75C9.125 1.33579 8.78921 1 8.375 1H4.75C2.67893 1 1 2.67893 1 4.75V11.25C1 13.3211 2.67893 15 4.75 15H8.375C8.78921 15 9.125 14.6642 9.125 14.25C9.125 13.8358 8.78921 13.5 8.375 13.5H4.75C3.50736 13.5 2.5 12.4926 2.5 11.25V4.75ZM11.2383 3.70171C11.5411 3.41908 12.0157 3.43545 12.2983 3.73826L15.7983 7.48826C16.0672 7.77642 16.0672 8.22358 15.7983 8.51174L12.2983 12.2617C12.0157 12.5646 11.5411 12.5809 11.2383 12.2983C10.9354 12.0157 10.9191 11.5411 11.2017 11.2383L13.5241 8.75L5.75 8.75C5.33579 8.75 5 8.41421 5 8C5 7.58579 5.33579 7.25 5.75 7.25L13.5241 7.25L11.2017 4.76174C10.9191 4.45893 10.9354 3.98433 11.2383 3.70171Z" fill="#142049"/>
</svg>
