<svg width="16" height="16" viewBox="0 0 16 16" fill="none" xmlns="http://www.w3.org/2000/svg">
<g clip-path="url(#clip0_1140_9343)">
<path fill-rule="evenodd" clip-rule="evenodd" d="M1.36412 5.14312L7.61412 8.89312C7.85163 9.03563 8.14835 9.03563 8.38586 8.89312L14.6359 5.14312C14.8618 5.00758 15 4.76345 15 4.5C15 4.23655 14.8618 3.99242 14.6359 3.85688L8.38586 0.10688C8.14835 -0.0356266 7.85163 -0.0356266 7.61412 0.10688L1.36412 3.85688C1.13822 3.99242 0.999991 4.23655 0.999991 4.5C0.999991 4.76345 1.13822 5.00758 1.36412 5.14312ZM7.61412 12.3931L1.36412 8.64312C1.00893 8.43001 0.893761 7.96931 1.10687 7.61413C1.31998 7.25894 1.78068 7.14377 2.13586 7.35688L7.99999 10.8754L13.8641 7.35688C14.2193 7.14377 14.68 7.25894 14.8931 7.61413C15.1062 7.96931 14.991 8.43001 14.6359 8.64312L8.38586 12.3931C8.14835 12.5356 7.85163 12.5356 7.61412 12.3931ZM1.36412 12.1431L7.61412 15.8931C7.85163 16.0356 8.14835 16.0356 8.38586 15.8931L14.6359 12.1431C14.991 11.93 15.1062 11.4693 14.8931 11.1141C14.68 10.7589 14.2193 10.6438 13.8641 10.8569L7.99999 14.3754L2.13586 10.8569C1.78068 10.6438 1.31998 10.7589 1.10687 11.1141C0.893761 11.4693 1.00893 11.93 1.36412 12.1431Z" fill="#142049"/>
</g>
<defs>
<clipPath id="clip0_1140_9343">
<rect width="16" height="16" fill="white"/>
</clipPath>
</defs>
</svg>
