<svg width="16" height="16" viewBox="0 0 16 16" fill="none" xmlns="http://www.w3.org/2000/svg">
<g clip-path="url(#clip0_1140_9307)">
<path d="M3.06911 15.8118C3.26829 15.9715 3.48831 16.0296 3.72918 15.986C3.97469 15.9473 4.22945 15.8263 4.49348 15.623L8.00231 12.9296L11.5042 15.623C11.7729 15.8263 12.0276 15.9473 12.2685 15.986C12.5094 16.0296 12.7294 15.9715 12.9286 15.8118C13.1277 15.6569 13.2482 15.4536 13.2899 15.2019C13.3316 14.9503 13.2991 14.6623 13.1926 14.338L11.803 10.0403L15.3396 7.39044C15.6082 7.19201 15.7958 6.97905 15.9024 6.75158C16.0136 6.52411 16.0298 6.28696 15.951 6.04012C15.8723 5.79329 15.724 5.6118 15.5063 5.49564C15.2933 5.37465 15.0223 5.31657 14.6934 5.32141L10.3577 5.35771L9.04454 1.03089C8.94263 0.696937 8.80367 0.442846 8.62765 0.268611C8.45626 0.0895371 8.24781 0 8.00231 0C7.75681 0 7.54605 0.0895371 7.37003 0.268611C7.19864 0.442846 7.06199 0.696937 6.96009 1.03089L5.63993 5.35771L1.30427 5.32141C0.980023 5.31657 0.709045 5.37465 0.491335 5.49564C0.278258 5.6118 0.132346 5.79087 0.0536002 6.03286C-0.0297779 6.2797 -0.0158815 6.51927 0.0952892 6.75158C0.20646 6.97905 0.396377 7.19201 0.66504 7.39044L4.19471 10.0403L2.81203 14.338C2.70549 14.6623 2.67306 14.9503 2.71475 15.2019C2.75644 15.4536 2.87456 15.6569 3.06911 15.8118Z" fill="#142049"/>
</g>
<defs>
<clipPath id="clip0_1140_9307">
<rect width="16" height="16" fill="white"/>
</clipPath>
</defs>
</svg>
