<svg width="16" height="16" viewBox="0 0 16 16" fill="none" xmlns="http://www.w3.org/2000/svg">
<path fill-rule="evenodd" clip-rule="evenodd" d="M1.5 3C1.5 2.17157 2.17157 1.5 3 1.5C3.82843 1.5 4.5 2.17157 4.5 3C4.5 3.82843 3.82843 4.5 3 4.5C2.17157 4.5 1.5 3.82843 1.5 3ZM3 0C1.34315 0 0 1.34315 0 3C0 4.65685 1.34315 6 3 6C3.16773 6 3.33225 5.98623 3.49248 5.95977C4.05296 6.67722 4.75824 7.34201 5.49852 7.84073C5.5795 7.89529 5.66185 7.94848 5.74536 8C5.66184 8.05151 5.5795 8.10471 5.49852 8.15927C4.75824 8.65798 4.05296 9.32278 3.49248 10.0402C3.33224 10.0138 3.16773 10 3 10C1.34315 10 0 11.3431 0 13C0 14.6569 1.34315 16 3 16C4.65685 16 6 14.6569 6 13C6 12.0668 5.57389 11.2331 4.90561 10.6829C5.32907 10.1936 5.82775 9.7461 6.3366 9.4033C6.99076 8.9626 7.57879 8.75 8 8.75C8.0004 8.75 8.00081 8.75 8.00121 8.75H13.5241L11.2017 11.2383C10.9191 11.5411 10.9354 12.0157 11.2383 12.2983C11.5411 12.5809 12.0157 12.5646 12.2983 12.2617L15.7983 8.51174C16.0672 8.22358 16.0672 7.77642 15.7983 7.48826L12.2983 3.73826C12.0157 3.43545 11.5411 3.41908 11.2383 3.70171C10.9354 3.98433 10.9191 4.45893 11.2017 4.76174L13.5241 7.25L8.00122 7.25L8.0006 7.25L8.00001 7.25C7.5788 7.25 6.99077 7.0374 6.33661 6.5967C5.82776 6.25389 5.32908 5.80641 4.90562 5.31714C5.57389 4.76691 6 3.93322 6 3C6 1.34315 4.65685 0 3 0ZM1.5 13C1.5 12.1716 2.17157 11.5 3 11.5C3.82843 11.5 4.5 12.1716 4.5 13C4.5 13.8284 3.82843 14.5 3 14.5C2.17157 14.5 1.5 13.8284 1.5 13Z" fill="#142049"/>
</svg>
