<svg width="16" height="16" viewBox="0 0 16 16" fill="none" xmlns="http://www.w3.org/2000/svg">
<g clip-path="url(#clip0_1142_9448)">
<path fill-rule="evenodd" clip-rule="evenodd" d="M8 14.5C11.5899 14.5 14.5 11.5899 14.5 8C14.5 4.41015 11.5899 1.5 8 1.5C4.41015 1.5 1.5 4.41015 1.5 8C1.5 11.5899 4.41015 14.5 8 14.5ZM8 16C12.4183 16 16 12.4183 16 8C16 3.58172 12.4183 0 8 0C3.58172 0 0 3.58172 0 8C0 12.4183 3.58172 16 8 16ZM8 11.5C9.933 11.5 11.5 9.933 11.5 8C11.5 6.067 9.933 4.5 8 4.5C6.067 4.5 4.5 6.067 4.5 8C4.5 9.933 6.067 11.5 8 11.5ZM8 13C10.7614 13 13 10.7614 13 8C13 5.23858 10.7614 3 8 3C5.23858 3 3 5.23858 3 8C3 10.7614 5.23858 13 8 13ZM8 9.25C8.69036 9.25 9.25 8.69036 9.25 8C9.25 7.30964 8.69036 6.75 8 6.75C7.30964 6.75 6.75 7.30964 6.75 8C6.75 8.69036 7.30964 9.25 8 9.25Z" fill="#142049"/>
</g>
<defs>
<clipPath id="clip0_1142_9448">
<rect width="16" height="16" fill="white"/>
</clipPath>
</defs>
</svg>
