<svg width="16" height="16" viewBox="0 0 16 16" fill="none" xmlns="http://www.w3.org/2000/svg">
<path fill-rule="evenodd" clip-rule="evenodd" d="M0 7.4C0 5.15016 0 4.02524 0.572949 3.23664C0.757988 2.98196 0.98196 2.75799 1.23664 2.57295C2.02524 2 3.15016 2 5.4 2H10.6C12.8498 2 13.9748 2 14.7634 2.57295C15.018 2.75799 15.242 2.98196 15.4271 3.23664C16 4.02524 16 5.15016 16 7.4V8.6C16 10.8498 16 11.9748 15.4271 12.7634C15.242 13.018 15.018 13.242 14.7634 13.4271C13.9748 14 12.8498 14 10.6 14H5.4C3.15016 14 2.02524 14 1.23664 13.4271C0.98196 13.242 0.757988 13.018 0.572949 12.7634C0 11.9748 0 10.8498 0 8.6V7.4ZM3.21967 4.21967C3.51256 3.92678 3.98744 3.92678 4.28033 4.21967L7.03033 6.96967C7.32322 7.26256 7.32322 7.73744 7.03033 8.03033L4.28033 10.7803C3.98744 11.0732 3.51256 11.0732 3.21967 10.7803C2.92678 10.4874 2.92678 10.0126 3.21967 9.71967L5.43934 7.5L3.21967 5.28033C2.92678 4.98744 2.92678 4.51256 3.21967 4.21967ZM9.75 8.5C9.33579 8.5 9 8.83579 9 9.25C9 9.66421 9.33579 10 9.75 10H12.25C12.6642 10 13 9.66421 13 9.25C13 8.83579 12.6642 8.5 12.25 8.5H9.75Z" fill="#142049"/>
</svg>
