<svg width="16" height="16" viewBox="0 0 16 16" fill="none" xmlns="http://www.w3.org/2000/svg">
<g clip-path="url(#clip0_1140_9367)">
<path fill-rule="evenodd" clip-rule="evenodd" d="M16 8C16 12.4183 12.4183 16 8 16C3.58172 16 0 12.4183 0 8C0 3.58172 3.58172 0 8 0C12.4183 0 16 3.58172 16 8ZM7.75 3C8.16421 3 8.5 3.33579 8.5 3.75V7.5H11.25C11.6642 7.5 12 7.83579 12 8.25C12 8.66421 11.6642 9 11.25 9H7.75C7.33579 9 7 8.66421 7 8.25V3.75C7 3.33579 7.33579 3 7.75 3Z" fill="#142049"/>
</g>
<defs>
<clipPath id="clip0_1140_9367">
<rect width="16" height="16" fill="white"/>
</clipPath>
</defs>
</svg>
