<svg width="16" height="16" viewBox="0 0 16 16" fill="none" xmlns="http://www.w3.org/2000/svg">
<path fill-rule="evenodd" clip-rule="evenodd" d="M7.20171 4.76174C6.91909 4.45892 6.93545 3.98433 7.23826 3.70171L10.9883 0.201708C11.2764 -0.0672361 11.7236 -0.067236 12.0117 0.201708L15.7617 3.70171C16.0646 3.98433 16.0809 4.45893 15.7983 4.76174C15.5157 5.06455 15.0411 5.08092 14.7383 4.79829L12.25 2.47591L12.25 12.25C12.25 12.6642 11.9142 13 11.5 13C11.0858 13 10.75 12.6642 10.75 12.25L10.75 2.47591L8.26174 4.79829C7.95893 5.08092 7.48434 5.06455 7.20171 4.76174ZM5.25 3.75C5.25 3.33579 4.91422 3 4.5 3C4.08579 3 3.75 3.33579 3.75 3.75V13.5241L1.26174 11.2017C0.958928 10.9191 0.484337 10.9354 0.201711 11.2383C-0.0809141 11.5411 -0.0645489 12.0157 0.238264 12.2983L3.98826 15.7983C4.27642 16.0672 4.72359 16.0672 5.01174 15.7983L8.76174 12.2983C9.06455 12.0157 9.08092 11.5411 8.79829 11.2383C8.51567 10.9354 8.04108 10.9191 7.73826 11.2017L5.25 13.5241V3.75Z" fill="#142049"/>
</svg>
