<svg width="16" height="16" viewBox="0 0 16 16" fill="none" xmlns="http://www.w3.org/2000/svg">
<path fill-rule="evenodd" clip-rule="evenodd" d="M8 8C10.2091 8 12 6.20914 12 4C12 1.79086 10.2091 0 8 0C5.79086 0 4 1.79086 4 4C4 6.20914 5.79086 8 8 8ZM6.8 9H8H9.2C9.9432 9 10.3148 9 10.6257 9.04925C12.3373 9.32033 13.6797 10.6627 13.9508 12.3743C14 12.6852 14 13.0568 14 13.8C14 13.9858 14 14.0787 13.9877 14.1564C13.9199 14.5843 13.5843 14.9199 13.1564 14.9877C13.0787 15 12.9858 15 12.8 15H3.2C3.0142 15 2.9213 15 2.84357 14.9877C2.41567 14.9199 2.08008 14.5843 2.01231 14.1564C2 14.0787 2 13.9858 2 13.8C2 13.0568 2 12.6852 2.04925 12.3743C2.32033 10.6627 3.66269 9.32033 5.37426 9.04925C5.68519 9 6.0568 9 6.8 9Z" fill="#142049"/>
</svg>
