<svg width="16" height="16" viewBox="0 0 16 16" fill="none" xmlns="http://www.w3.org/2000/svg">
<path fill-rule="evenodd" clip-rule="evenodd" d="M2 4.8C2 3.11984 2 2.27976 2.32698 1.63803C2.6146 1.07354 3.07354 0.614601 3.63803 0.32698C4.27976 0 5.11984 0 6.8 0H9.2C10.8802 0 11.7202 0 12.362 0.32698C12.9265 0.614601 13.3854 1.07354 13.673 1.63803C14 2.27976 14 3.11984 14 4.8V11.2C14 12.8802 14 13.7202 13.673 14.362C13.3854 14.9265 12.9265 15.3854 12.362 15.673C11.7202 16 10.8802 16 9.2 16H6.8C5.11984 16 4.27976 16 3.63803 15.673C3.07354 15.3854 2.6146 14.9265 2.32698 14.362C2 13.7202 2 12.8802 2 11.2V4.8ZM4 12.25C4 11.8358 4.33579 11.5 4.75 11.5H9.25C9.66421 11.5 10 11.8358 10 12.25C10 12.6642 9.66421 13 9.25 13H4.75C4.33579 13 4 12.6642 4 12.25ZM5.5 6.00001C6.32843 6.00001 7 5.32844 7 4.50001C7 3.67158 6.32843 3.00001 5.5 3.00001C4.67157 3.00001 4 3.67158 4 4.50001C4 5.32844 4.67157 6.00001 5.5 6.00001Z" fill="#142049"/>
</svg>
