<svg width="16" height="16" viewBox="0 0 16 16" fill="none" xmlns="http://www.w3.org/2000/svg">
<g clip-path="url(#clip0_861_8785)">
<path fill-rule="evenodd" clip-rule="evenodd" d="M3.75 8C3.75 5.65279 5.65279 3.75 8 3.75C10.3472 3.75 12.25 5.65279 12.25 8C12.25 10.3472 10.3472 12.25 8 12.25C5.65279 12.25 3.75 10.3472 3.75 8ZM8 2.25C4.82436 2.25 2.25 4.82436 2.25 8C2.25 11.1756 4.82436 13.75 8 13.75C11.1756 13.75 13.75 11.1756 13.75 8C13.75 4.82436 11.1756 2.25 8 2.25ZM8 9C8.55228 9 9 8.55228 9 8C9 7.44772 8.55228 7 8 7C7.44772 7 7 7.44772 7 8C7 8.55228 7.44772 9 8 9Z" fill="#142049"/>
<path opacity="0.6" fill-rule="evenodd" clip-rule="evenodd" d="M0.21967 1.28033C-0.0732231 0.987437 -0.0732231 0.512563 0.21967 0.21967C0.512563 -0.0732233 0.987437 -0.0732233 1.28033 0.21967L4.90533 3.84467C5.19822 4.13756 5.19822 4.61244 4.90533 4.90533C4.61244 5.19822 4.13756 5.19822 3.84467 4.90533L0.21967 1.28033ZM11.0947 12.1553C10.8018 11.8624 10.8018 11.3876 11.0947 11.0947C11.3876 10.8018 11.8624 10.8018 12.1553 11.0947L15.7803 14.7197C16.0732 15.0126 16.0732 15.4874 15.7803 15.7803C15.4874 16.0732 15.0126 16.0732 14.7197 15.7803L11.0947 12.1553ZM4.90533 11.0947C5.19822 11.3876 5.19822 11.8624 4.90533 12.1553L1.28033 15.7803C0.987437 16.0732 0.512563 16.0732 0.21967 15.7803C-0.0732233 15.4874 -0.0732233 15.0126 0.21967 14.7197L3.84467 11.0947C4.13756 10.8018 4.61244 10.8018 4.90533 11.0947ZM15.7803 1.28033C16.0732 0.987437 16.0732 0.512563 15.7803 0.21967C15.4874 -0.0732233 15.0126 -0.0732233 14.7197 0.21967L11.0947 3.84467C10.8018 4.13756 10.8018 4.61244 11.0947 4.90533C11.3876 5.19822 11.8624 5.19822 12.1553 4.90533L15.7803 1.28033Z" fill="#142049"/>
</g>
<defs>
<clipPath id="clip0_861_8785">
<rect width="16" height="16" fill="white"/>
</clipPath>
</defs>
</svg>
